<svg width="821" height="646" viewBox="0 0 821 646" fill="none" xmlns="http://www.w3.org/2000/svg">
<g clip-path="url(#clip0_1_296)">
<path d="M215.144 291.444C213.338 291.444 211.87 292.912 211.87 294.718V320.909C211.87 322.715 213.338 324.183 215.144 324.183C216.949 324.183 218.418 322.715 218.418 320.909V294.718C218.418 292.912 216.949 291.444 215.144 291.444Z" fill="#3F3D56"/>
<path d="M347.815 575.121C489.815 599.621 563.091 550.578 563.464 549.12C567.439 546.78 571.451 544.468 575.214 541.812C581.202 537.588 587.036 533.141 592.856 528.685C595.725 526.488 598.528 524.178 601.15 521.697C603.033 519.913 604.424 517.613 606.285 515.801C610.559 511.641 615.154 507.803 619.314 503.537C626.784 495.877 634.137 488.095 641.336 480.179C647.152 473.784 652.755 467.188 658.291 460.547C662.139 455.931 665.718 451.092 669.407 446.344C672.478 442.392 675.81 438.607 678.525 434.423C681.734 429.476 684.541 424.251 687.271 419.016C690.082 413.626 692.831 408.18 695.167 402.575C697.964 395.866 701.708 389.485 702.007 381.859C702.25 375.67 703.32 369.517 703.678 363.329C704.099 356.054 703.232 348.833 701.935 341.671C700.815 335.488 699.212 329.408 696.17 323.905C692.962 318.102 689.48 312.425 685.752 306.942C681.275 300.359 675.928 294.55 669.413 289.81C663.331 285.386 656.705 282.064 649.795 279.269C643.333 276.655 636.757 274.329 630.27 271.776C626.548 270.31 622.929 268.586 619.222 267.082C613.212 264.643 607.105 262.433 601.152 259.866C591.87 255.863 583.65 250.345 576.876 242.687C572.465 237.699 567.672 233.046 562.997 228.296C558.397 223.621 553.687 219.054 549.113 214.354C547.193 212.381 545.66 210.02 543.669 208.131C540.725 205.339 537.567 202.767 534.431 200.184C531.331 197.631 528.406 194.712 524.943 192.781C517.285 188.512 509.684 184.081 501.137 181.582C493.714 179.411 486.486 176.777 478.757 175.499C470.774 174.178 462.848 172.957 454.753 172.966C444.373 172.978 433.992 172.94 423.613 172.99C421.06 173.002 418.475 173.058 415.963 173.458C409.196 174.534 402.445 175.732 395.715 177.026C390.344 178.058 385.007 179.27 379.669 180.464L379.481 180.506C375.589 181.377 371.693 182.249 367.847 183.298C361.149 185.126 354.476 187.056 347.815 189.016C338.716 191.694 330.636 196.937 321.408 199.389C316.495 200.695 311.764 202.76 307.049 204.718C298.957 208.078 290.917 211.568 282.905 215.114C279.178 216.764 275.684 218.992 271.879 220.4C264.209 223.239 257.052 227.03 250.276 231.507C244.719 235.178 239.527 239.397 234.021 243.151C226.327 248.397 219.015 254.059 213.184 261.388C209.009 266.636 204.62 271.784 201.067 277.441C196.046 285.434 191.447 293.722 187.152 302.132C183.138 309.993 179.671 318.141 176.125 326.233C173.801 331.54 171.486 336.88 169.674 342.373C167.565 348.77 166.184 355.404 164.16 361.832C162.542 366.972 161.946 372.178 162.004 377.503C162.019 378.936 162.396 380.365 162.414 381.798C162.593 395.775 162.691 409.753 162.916 423.729C162.957 426.223 163.401 428.722 163.793 431.197C164.479 435.527 165.237 439.847 166.027 444.16C166.686 447.758 167.14 451.43 168.199 454.913C171.242 464.92 175.155 474.598 180.361 483.695C183.789 489.685 187.348 495.604 190.994 501.464C192.13 503.288 193.762 504.8 195.139 506.478C197.926 509.875 200.092 512.808 203.507 516.658C243.857 562.145 300.988 567.042 347.815 575.121Z" fill="#CE1B34"/>
<path d="M148.759 447.794C145.868 440.989 143.6 434.241 142.432 427.101C141.504 421.429 139.982 415.856 138.947 410.198C138.39 407.157 138.401 404.018 137.983 400.947C137.264 395.666 136.411 390.403 135.611 385.132C135.217 382.533 134.699 379.947 134.441 377.335C133.501 367.838 132.76 358.328 133.073 348.769C133.238 343.727 133.048 338.648 133.606 333.652C134.312 327.326 135.667 321.075 136.643 314.776C137.331 310.333 137.699 305.836 138.488 301.413C139.824 293.921 142.114 286.716 145.979 280.109C147.678 277.205 149.605 274.435 151.451 271.619C152.699 269.716 156.607 268.052 158.289 268.411C160.6 268.904 161.435 270.604 161.228 272.485C160.828 276.122 160.226 279.778 159.262 283.304C157.269 290.595 154.733 297.742 152.903 305.069C151.569 310.412 150.981 315.944 150.11 321.399C149.035 328.131 147.986 334.866 146.984 341.609C146.718 343.397 146.607 345.214 146.53 347.022C146.344 351.439 146.238 355.86 146.064 360.278C145.948 363.205 145.541 366.139 145.668 369.052C145.975 376.116 146.462 383.175 146.986 390.227C147.328 394.829 147.771 399.428 148.34 404.007C148.793 407.66 149.51 411.281 150.102 414.918C150.705 418.627 151.16 422.368 151.936 426.041C152.64 429.369 153.591 432.655 154.603 435.908C157.235 444.37 159.903 452.823 162.669 461.243C164.74 467.546 167.002 473.786 169.146 480.065C170.09 482.829 169.499 484.443 167.371 484.453C165.675 484.461 164.304 483.382 163.554 481.769C162.915 480.393 162.383 478.967 161.748 477.589C158.773 471.129 155.717 464.705 152.817 458.211C151.327 454.875 150.103 451.419 148.759 447.794Z" fill="#CE1B34"/>
<path d="M667.794 215.892C661.768 217.386 656.002 219.052 650.149 220.315C645.982 221.213 641.62 222.362 637.483 221.964C632.359 221.47 626.923 223.027 622.097 220.338C618.921 218.568 615.816 216.62 612.885 214.47C607.411 210.456 603.809 204.91 600.852 198.908C597.667 192.445 595.659 185.592 594.34 178.54C593.839 175.864 593.33 173.095 593.5 170.411C593.756 166.381 594.548 162.378 595.218 158.382C596.049 153.421 597.803 148.755 599.894 144.193C602.769 137.923 607.922 133.795 613.309 129.949C619.615 125.446 626.504 121.918 633.918 119.722C638.296 118.425 642.94 117.959 647.495 117.338C656.3 116.139 664.83 118.356 673.187 120.417C685.162 123.37 692.024 132.153 695.478 143.512C697.37 149.733 698.314 156.247 699.59 162.648C700.295 166.188 701.104 169.749 701.307 173.332C701.472 176.243 701.02 179.244 700.459 182.131C699.362 187.78 696.958 192.934 693.794 197.727C691.212 201.637 687.514 204.434 683.973 207.367C679.242 211.285 673.658 213.651 667.794 215.892Z" fill="#CE1B34"/>
<path d="M689.784 259.035C688.353 257.155 686.79 255.51 685.808 253.571C685.252 252.475 685.265 250.753 685.704 249.564C686.48 247.458 688.697 247.58 690.306 248.047C691.988 248.535 693.636 249.619 694.947 250.825C701.926 257.246 708.07 264.456 713.275 272.345C717.679 279.02 721.121 286.282 722.345 294.316C723.145 299.562 723.848 304.851 724.117 310.145C724.619 320.014 725.008 329.902 725 339.782C724.993 348.172 723.578 356.399 720.151 364.172C719.022 366.734 715.235 370.038 712.067 369.854C709.576 369.71 707.149 367.899 707.214 365.427C707.308 361.832 707.735 358.234 708.227 354.665C708.796 350.532 709.646 346.437 710.267 342.309C710.8 338.775 711.493 335.223 711.559 331.669C711.668 325.763 711.683 319.813 711.079 313.949C710.51 308.435 709.232 302.977 708.007 297.552C706.557 291.128 705.044 284.664 701.737 278.885C697.926 272.228 693.855 265.72 689.784 259.035Z" fill="#CE1B34"/>
<path d="M189.677 235.286C187.847 237.362 186.053 239.265 184.427 241.302C180.405 246.339 176.472 251.447 172.476 256.506C171.309 257.984 169.703 258.917 167.925 258.026C166.161 257.141 166.404 255.189 166.5 253.518C166.724 249.653 168.693 246.43 170.839 243.463C175.343 237.236 180.083 231.156 185.695 225.864C191.561 220.333 197.731 215.175 204.482 210.701C208.116 208.293 211.611 205.737 216.001 204.97C216.971 204.8 218.702 204.875 218.914 205.354C219.334 206.303 219.362 207.917 218.792 208.71C217.551 210.435 215.906 211.898 214.296 213.321C211.485 215.806 208.512 218.108 205.722 220.614C200.369 225.42 195.095 230.315 189.677 235.286Z" fill="#CE1B34"/>
<path d="M587.537 0H293.04C259.644 0 232.571 27.0729 232.571 60.4691V580.869C232.571 614.265 259.644 641.338 293.04 641.338H587.537C620.934 641.338 648.006 614.265 648.006 580.869V60.4691C648.006 27.0729 620.934 0 587.537 0Z" fill="white"/>
<path d="M587.538 645.769H293.04C258.908 645.769 231.139 618.001 231.139 583.869V63.4694C231.139 29.3373 258.908 1.56834 293.04 1.56834H587.538C621.67 1.56834 649.439 29.3373 649.439 63.4694V583.869C649.439 618.001 621.67 645.769 587.538 645.769ZM293.04 4.43215C260.487 4.43215 234.003 30.916 234.003 63.4694V583.869C234.003 616.422 260.487 642.906 293.04 642.906H587.538C620.091 642.906 646.575 616.422 646.575 583.869V63.4694C646.575 30.916 620.091 4.43215 587.538 4.43215H293.04Z" fill="#3F3D56"/>
<path d="M608.87 126.804H490.497C485.477 126.804 481.392 122.719 481.392 117.699C481.392 112.678 485.477 108.593 490.497 108.593H608.87C613.89 108.593 617.975 112.678 617.975 117.699C617.975 122.719 613.89 126.804 608.87 126.804Z" fill="#E6E6E6"/>
<path d="M497.821 198.41H382.757C379.857 198.41 377.496 196.049 377.496 193.148C377.496 190.248 379.857 187.888 382.757 187.888H497.821C500.722 187.888 503.081 190.248 503.081 193.149C503.081 196.049 500.722 198.41 497.821 198.41Z" fill="#66FF63"/>
<path d="M335.324 22.5569H269.364C269.193 22.5569 269.054 22.6958 269.054 22.8671V30.7827C269.054 30.954 269.193 31.0929 269.364 31.0929H335.324C335.496 31.0929 335.634 30.954 335.634 30.7827V22.8671C335.634 22.6958 335.496 22.5569 335.324 22.5569Z" fill="#E6E6E6"/>
<path d="M556.463 31.0929C560.235 31.0929 563.292 28.0355 563.292 24.2641C563.292 20.4927 560.235 17.4353 556.463 17.4353C552.692 17.4353 549.634 20.4927 549.634 24.2641C549.634 28.0355 552.692 31.0929 556.463 31.0929Z" fill="#E6E6E6"/>
<path d="M575.242 31.0929C579.014 31.0929 582.071 28.0355 582.071 24.2641C582.071 20.4927 579.014 17.4353 575.242 17.4353C571.471 17.4353 568.414 20.4927 568.414 24.2641C568.414 28.0355 571.471 31.0929 575.242 31.0929Z" fill="#E6E6E6"/>
<path d="M594.021 31.0929C597.793 31.0929 600.85 28.0355 600.85 24.2641C600.85 20.4927 597.793 17.4353 594.021 17.4353C590.25 17.4353 587.193 20.4927 587.193 24.2641C587.193 28.0355 590.25 31.0929 594.021 31.0929Z" fill="#E6E6E6"/>
<path d="M174.781 302.615C180.038 297.265 187.059 295.641 190.463 298.987C193.867 302.333 192.365 309.381 187.105 314.732C185.034 316.898 182.473 318.537 179.639 319.511L157.079 341.896L146.8 331.086L170.131 310.165C171.056 307.313 172.65 304.724 174.781 302.615Z" fill="#FFB6B6"/>
<path d="M292.323 226.571C292.323 227.516 293.082 228.275 294.027 228.275H586.55C587.495 228.275 588.254 227.516 588.254 226.571C588.254 225.626 587.495 224.867 586.55 224.867H294.027C293.082 224.867 292.323 225.626 292.323 226.571Z" fill="#3F3D56"/>
<path d="M524.323 467.571C524.323 468.516 525.082 469.275 526.027 469.275H818.55C819.495 469.275 820.254 468.516 820.254 467.571C820.254 466.626 819.495 465.867 818.55 465.867H526.027C525.082 465.867 524.323 466.626 524.323 467.571Z" fill="#3F3D56"/>
<path d="M558.499 360.498H382.95C380.049 360.498 377.689 358.138 377.689 355.237C377.689 352.336 380.049 349.977 382.95 349.977H558.499C561.399 349.977 563.759 352.336 563.759 355.237C563.759 358.138 561.399 360.498 558.499 360.498Z" fill="#6FFF63"/>
<path d="M329.706 367.474C336.823 367.474 342.593 361.704 342.593 354.587C342.593 347.47 336.823 341.7 329.706 341.7C322.588 341.7 316.819 347.47 316.819 354.587C316.819 361.704 322.588 367.474 329.706 367.474Z" fill="black"/>
<path d="M328.274 376.066V373.202C338.933 373.202 347.604 364.53 347.604 353.871C347.604 343.212 338.933 334.54 328.274 334.54V331.677C340.512 331.677 350.468 341.633 350.468 353.871C350.468 366.109 340.512 376.066 328.274 376.066Z" fill="#3F3D56"/>
<path d="M102.633 284.137L126.286 336.61L164.056 316.165L177.574 323.339C177.574 323.339 146.697 374.959 125.556 369.083C104.415 363.206 66.8739 309.925 73.6378 293.48C80.4018 277.036 102.633 284.137 102.633 284.137Z" fill="#E6E6E6"/>
<path d="M0 644.013C0 644.673 0.53003 645.203 1.19006 645.203H730.48C731.14 645.203 731.67 644.673 731.67 644.013C731.67 643.353 731.14 642.823 730.48 642.823H1.19006C0.53003 642.823 0 643.353 0 644.013Z" fill="#3F3D56"/>
<path d="M218.322 387.479C254.165 387.479 283.221 359.035 283.221 323.947C283.221 288.86 254.165 260.416 218.322 260.416C182.48 260.416 153.423 288.86 153.423 323.947C153.423 359.035 182.48 387.479 218.322 387.479Z" fill="#CE1B34"/>
<path d="M92.2613 633.848L109.508 633.846L117.713 567.322L92.2579 567.324L92.2613 633.848Z" fill="#FFB6B6"/>
<path d="M151.351 633.457C151.888 634.361 152.172 637.28 152.172 638.332C152.172 641.565 149.551 644.186 146.318 644.186H92.9064C90.701 644.186 88.913 642.398 88.913 640.193V637.969C88.913 637.969 86.2708 631.285 91.7107 623.048C91.7107 623.048 98.4717 629.498 108.574 619.395L111.554 613.998L133.119 629.77L145.072 631.241C147.687 631.563 150.006 631.191 151.351 633.457Z" fill="#2F2E41"/>
<path d="M105.312 287.504L105.661 264.242L91.3159 255.3L75.7173 274.38L105.312 287.504Z" fill="#FFB6B6"/>
<path opacity="0.1" d="M105.312 287.504L106.241 264.822L91.3159 255.3L96.3865 283.37L105.312 287.504Z" fill="black"/>
<path d="M140.15 441.325L116.384 603.047H86.5673L90.5321 510.732L92.6189 462.192L86.5673 439.087C86.5673 439.087 83.8082 433.951 81.4838 427.726C78.8638 420.701 76.7945 412.278 79.8666 408.285C80.9969 406.812 83.9357 405.723 87.9295 404.911C90.3698 404.413 93.2101 404.024 96.2765 403.723C113.909 401.978 138.991 403.068 138.991 403.068L139.628 424.109L139.982 435.859L140.15 441.325Z" fill="#2F2E41"/>
<path d="M61.8802 625.939L78.944 628.446L96.7377 563.822L71.5533 560.122L61.8802 625.939Z" fill="#FFB6B6"/>
<path d="M120.399 634.147C120.799 635.12 120.654 638.049 120.501 639.09C120.031 642.288 117.057 644.5 113.858 644.03L61.0148 636.261C58.8328 635.94 57.3239 633.911 57.6447 631.729L57.9682 629.529C57.9682 629.529 56.3262 622.532 62.9065 615.173C62.9065 615.173 68.6574 622.538 80.1222 614.013L83.8547 609.106L102.897 627.847L114.509 631.042C117.049 631.74 119.397 631.71 120.399 634.147Z" fill="#2F2E41"/>
<path d="M140.524 414.354L137.264 442.426L119.488 501.582L90.2245 598.973L60.7278 594.638L87.2008 456.163L84.5795 432.418C84.5795 432.418 83.7259 430.058 82.7474 426.602C80.8051 419.766 78.369 408.634 81.0491 402.955C81.4109 402.183 81.8652 401.514 82.4272 400.971C83.4814 399.949 85.6238 399.328 88.4942 398.999C100.492 397.643 125.201 401.521 136.195 403.425L140.524 414.354Z" fill="#2F2E41"/>
<path d="M78.9971 269.459L107.98 283.37C107.98 283.37 138.701 374.375 138.701 379.012C138.701 383.65 147.396 386.548 142.179 391.765C136.962 396.981 151.889 401.4 143.846 405.567C135.803 409.734 85.6288 432.527 80.0497 430.472C64.6623 424.803 80.7018 403.971 80.7018 403.971C80.7018 403.971 69.143 394.663 70.882 390.026C72.6209 385.389 60.4483 296.702 60.4483 296.702L78.9971 269.459Z" fill="#E6E6E6"/>
<path d="M167.309 349.648C174.502 347.523 181.429 349.512 182.781 354.09C184.132 358.668 179.397 364.1 172.202 366.225C169.339 367.113 166.305 367.303 163.354 366.778L132.764 375.397L129.025 360.956L159.579 353.992C161.772 351.947 164.423 350.458 167.309 349.648Z" fill="#FFB6B6"/>
<path d="M113.204 298.469L108.409 355.826L151.355 356.288L159.69 369.122C159.69 369.122 107.637 399.262 92.0067 383.862C76.3766 368.461 69.422 303.654 83.3185 292.561C97.2151 281.468 113.204 298.469 113.204 298.469Z" fill="#E6E6E6"/>
<path d="M104.708 270.991C118.42 270.991 129.536 259.875 129.536 246.163C129.536 232.451 118.42 221.335 104.708 221.335C90.9961 221.335 79.8804 232.451 79.8804 246.163C79.8804 259.875 90.9961 270.991 104.708 270.991Z" fill="#FFB6B6"/>
<path d="M91.3167 246.261C91.3167 246.261 95.2266 239.81 97.377 236.486C99.5274 233.163 99.5274 228.294 99.5274 228.294C99.5274 228.294 119.468 227.884 126.114 233.554C132.761 239.223 137.453 218.305 131.002 211.072C131.002 211.072 128.265 214.2 128.851 215.373L129.438 216.546C129.438 216.546 126.114 203.252 116.535 200.711C116.535 200.711 111.206 203.463 112.698 205.019C114.189 206.576 101.287 195.628 97.377 202.079C97.377 202.079 87.7978 201.884 88.9708 205.403L88.3843 207.553C88.3843 207.553 80.1736 205.012 79.5871 211.072C79.5871 211.072 82.5195 211.072 84.0835 212.636C85.6474 214.2 78.4142 218.696 78.4142 218.696C78.4142 218.696 70.008 241.764 81.3466 251.148C81.3466 251.148 81.4443 239.907 85.9406 242.644C90.437 245.381 91.3167 246.261 91.3167 246.261Z" fill="#2F2E41"/>
<path d="M114.944 260.923L114.052 263.269L120.738 263.464L121.184 261.314L114.944 260.923Z" fill="#2F2E41"/>
<path d="M121.63 252.517C121.63 252.517 111.601 249.78 105.584 257.99L104.247 259.554C104.247 259.554 91.5435 245.283 92.6578 240.005L89.9834 240.2L87.3091 253.885C87.3091 253.885 95.7778 268.547 107.59 269.133C107.59 269.133 118.955 271.87 121.407 267.179C123.858 262.487 128.079 255.568 128.079 255.568L121.63 252.517ZM119.806 265.615H113.161C111.601 265.615 107.59 259.945 107.59 259.945C109.818 256.426 116.504 256.231 116.504 256.231H123.765L124.304 258.381L119.806 265.615Z" fill="#2F2E41"/>
<path d="M605.599 635.737L594.698 633.381L598.597 590.213L614.686 593.69L605.599 635.737Z" fill="#A0616A"/>
<path d="M568.303 627.421C567.84 627.919 567.263 629.725 567.119 630.39C566.678 632.433 567.976 634.448 570.02 634.889L603.779 642.183C605.173 642.485 606.548 641.599 606.849 640.205L607.152 638.799C607.152 638.799 609.735 634.936 607.422 628.986C607.422 628.986 602.268 632.14 597.262 624.374L596.116 620.556L580.331 627.58L572.575 626.878C570.878 626.724 569.463 626.172 568.303 627.421Z" fill="#2F2E41"/>
<path d="M586.1 632.435L577.006 625.979L597.576 587.827L610.999 597.355L586.1 632.435Z" fill="#A0616A"/>
<path d="M555.086 610.114C554.464 610.39 553.222 611.823 552.828 612.378C551.619 614.083 552.02 616.446 553.725 617.656L581.891 637.645C583.054 638.47 584.666 638.197 585.492 637.034L586.324 635.861C586.324 635.861 590.218 633.325 590.433 626.945C590.433 626.945 584.453 627.817 582.907 618.708L583.355 614.747L566.08 614.993L559.226 611.295C557.727 610.486 556.643 609.423 555.086 610.114Z" fill="#2F2E41"/>
<path d="M717.117 419.008C717.117 419.008 734.076 442.065 700.158 467.988L630.907 445.86L655.639 394.275L677.545 382.263L717.117 419.008Z" fill="#2F2E41"/>
<path d="M630.907 445.86L604.055 498.151L587.095 606.974L608.294 608.387L629.494 505.218L666.945 449.393L640.8 437.38" fill="#2F2E41"/>
<path d="M700.158 451.563V467.988L652.106 520.764C652.106 520.764 652.106 560.336 633.733 578.708L612.534 611.214L594.162 601.321L621.014 506.631L669.065 444.447L700.158 451.563Z" fill="#2F2E41"/>
<path d="M666.011 288.723L673.298 323.234L701.079 316.445C701.079 316.445 687.347 287.883 690.079 276.568L666.011 288.723Z" fill="#A0616A"/>
<path opacity="0.1" d="M666.011 288.723L673.298 323.234L701.079 316.445C701.079 316.445 687.347 287.883 690.079 276.568L666.011 288.723Z" fill="black"/>
<path d="M692.385 293.933L671.185 303.826C671.185 303.826 660.28 310.491 660.079 314.931C659.879 319.372 661.292 340.571 661.292 340.571C661.292 340.571 652.813 349.05 658.466 366.01L655.639 394.275L719.237 428.194L713.584 368.836L716.41 313.719L692.385 293.933Z" fill="#E6E6E6"/>
<path d="M711.414 454.766C708.931 460.461 703.981 463.796 700.357 462.216C696.733 460.636 695.808 454.739 698.292 449.043C699.253 446.753 700.748 444.728 702.652 443.135L713.474 419.138L724.627 424.456L712.774 447.548C712.904 450.028 712.437 452.503 711.414 454.766Z" fill="#A0616A"/>
<path d="M700.158 317.252C700.158 317.252 715.704 307.359 721.357 318.665C727.01 329.971 739.729 387.916 739.729 387.916L721.357 443.033L704.397 435.967L719.237 376.648L700.158 317.252Z" fill="#E6E6E6"/>
<path d="M620.481 445.869C616.075 450.249 610.244 451.527 607.457 448.722C604.67 445.918 605.983 440.095 610.39 435.714C612.127 433.94 614.263 432.608 616.621 431.829L635.522 413.506L643.931 422.559L624.405 439.661C623.611 442.014 622.266 444.143 620.481 445.869Z" fill="#A0616A"/>
<path d="M660.677 313.88C660.677 313.88 687.781 312.772 688.871 325.365C689.961 337.959 671.433 394.153 671.433 394.153L634.047 438.625L620.884 425.808L656.533 376.128L660.677 313.88Z" fill="#E6E6E6"/>
<path d="M738.935 463.127L565.627 435.174C562.763 434.712 560.808 432.006 561.27 429.142C561.732 426.278 564.438 424.325 567.302 424.787L740.61 452.74C743.474 453.202 745.428 455.907 744.966 458.771C744.504 461.635 741.799 463.589 738.935 463.127Z" fill="#66FF63"/>
<path d="M514.003 433.747C521.12 433.747 526.89 427.977 526.89 420.86C526.89 413.743 521.12 407.973 514.003 407.973C506.885 407.973 501.116 413.743 501.116 420.86C501.116 427.977 506.885 433.747 514.003 433.747Z" fill="black"/>
<path d="M509.169 441.837L509.625 439.009C520.148 440.707 530.09 433.527 531.787 423.003C533.484 412.48 526.304 402.538 515.781 400.841L516.237 398.014C528.319 399.963 536.563 411.377 534.614 423.459C532.665 435.542 521.251 443.785 509.169 441.837Z" fill="#3F3D56"/>
<path d="M668.79 296.059C680.579 296.059 690.135 286.502 690.135 274.714C690.135 262.926 680.579 253.37 668.79 253.37C657.002 253.37 647.446 262.926 647.446 274.714C647.446 286.502 657.002 296.059 668.79 296.059Z" fill="#A0616A"/>
<path d="M681.404 274.714C681.404 274.714 668.079 262.619 659.541 266.888C651.004 271.157 646.735 274.003 646.735 274.003C646.735 274.003 639.62 263.331 650.292 254.082C650.292 254.082 628.57 244.592 644.412 229.771C660.253 214.951 674.482 220.642 674.482 220.642C674.482 220.642 693.692 229.18 680.174 246.255C680.174 246.255 699.867 258.745 689.665 279.18C689.665 279.18 688.712 266.177 685.866 269.734C683.02 273.291 681.404 274.714 681.404 274.714Z" fill="#2F2E41"/>
<path d="M240.62 347.867C232.461 327.806 224.301 307.745 216.142 287.683C215.015 284.913 211.484 284.814 210.385 287.683C202.323 308.716 197.054 330.663 194.521 353.039C194.09 356.851 200.064 356.82 200.492 353.039C201.483 344.283 202.954 335.592 204.843 326.994C211.567 327.346 218.346 326.592 224.834 324.796C228.177 333.015 231.52 341.235 234.863 349.454C236.292 352.966 242.07 351.43 240.62 347.867ZM206.197 321.091C208.208 312.86 210.619 304.727 213.416 296.724L222.566 319.221C217.207 320.627 211.726 321.253 206.197 321.091Z" fill="white"/>
<path d="M252.127 352.885C255.441 352.885 258.127 350.198 258.127 346.885C258.127 343.571 255.441 340.885 252.127 340.885C248.813 340.885 246.127 343.571 246.127 346.885C246.127 350.198 248.813 352.885 252.127 352.885Z" fill="white"/>
<path d="M189.127 299.885C192.441 299.885 195.127 297.198 195.127 293.885C195.127 290.571 192.441 287.885 189.127 287.885C185.813 287.885 183.127 290.571 183.127 293.885C183.127 297.198 185.813 299.885 189.127 299.885Z" fill="white"/>
</g>
<defs>
<clipPath id="clip0_1_296">
<rect width="820.254" height="645.769" fill="white"/>
</clipPath>
</defs>
</svg>
